<svg width="80" height="24" viewBox="0 0 80 24" fill="none" xmlns="http://www.w3.org/2000/svg">
<path d="M67.7999 24.0003L70.14 18.3795L64.9291 6.94482H68.8131L72.1182 14.3026L75.3508 6.94482H79.1142L71.515 24.0003H67.7999Z" fill="black"/>
<path d="M51.6302 19.0305V6.94453H55.2971V8.4402C55.5866 8.03814 55.9083 7.72453 56.2621 7.49938C56.632 7.25814 56.9778 7.08123 57.2994 6.96866C57.6372 6.85608 57.9267 6.78371 58.1679 6.75154C58.4252 6.71938 58.5941 6.70329 58.6745 6.70329C59.929 6.70329 60.902 6.90432 61.5935 7.30639C62.3012 7.69237 62.8239 8.18288 63.1616 8.77794C63.4994 9.35691 63.7004 9.99216 63.7647 10.6837C63.8451 11.3753 63.8853 12.0186 63.8853 12.6136V19.0305H60.1943V12.493C60.1943 11.6728 60.0255 11.0456 59.6877 10.6113C59.35 10.161 58.7951 9.93588 58.0232 9.93588C57.5407 9.93588 57.1225 10.0163 56.7687 10.1771C56.431 10.3379 56.1495 10.547 55.9244 10.8043C55.7153 11.0456 55.5625 11.327 55.466 11.6487C55.3695 11.9542 55.3213 12.2598 55.3213 12.5654V19.0305H51.6302Z" fill="black"/>
<path d="M36.5524 19.0305V6.94453H40.2193V8.4402C40.5088 8.03814 40.8305 7.72453 41.1843 7.49938C41.5542 7.25814 41.9 7.08123 42.2216 6.96866C42.5594 6.85608 42.8488 6.78371 43.0901 6.75154C43.3474 6.71938 43.5163 6.70329 43.5967 6.70329C44.8512 6.70329 45.8242 6.90432 46.5157 7.30639C47.2234 7.69237 47.7461 8.18288 48.0838 8.77794C48.4215 9.35691 48.6226 9.99216 48.6869 10.6837C48.7673 11.3753 48.8075 12.0186 48.8075 12.6136V19.0305H45.1165V12.493C45.1165 11.6728 44.9477 11.0456 44.6099 10.6113C44.2722 10.161 43.7173 9.93588 42.9453 9.93588C42.4629 9.93588 42.0447 10.0163 41.6909 10.1771C41.3531 10.3379 41.0717 10.547 40.8465 10.8043C40.6375 11.0456 40.4847 11.327 40.3882 11.6487C40.2917 11.9542 40.2434 12.2598 40.2434 12.5654V19.0305H36.5524Z" fill="black"/>
<path d="M29.4989 2.72313C29.4989 2.53014 29.5391 2.31302 29.6196 2.07179C29.7 1.83055 29.8286 1.60539 30.0055 1.39632C30.1825 1.18725 30.4076 1.01034 30.681 0.865597C30.9705 0.720855 31.3163 0.648483 31.7184 0.648483C32.1043 0.648483 32.434 0.712813 32.7075 0.841474C32.9809 0.970133 33.206 1.139 33.3829 1.34807C33.5759 1.54106 33.7126 1.75818 33.793 1.99941C33.8735 2.24065 33.9137 2.46581 33.9137 2.67488C33.9137 2.88395 33.8735 3.10911 33.793 3.35034C33.7126 3.59158 33.584 3.82478 33.4071 4.04993C33.2462 4.259 33.0211 4.43591 32.7316 4.58065C32.4582 4.7254 32.1204 4.79777 31.7184 4.79777C31.3324 4.79777 30.9946 4.73344 30.7051 4.60478C30.4317 4.46004 30.1985 4.28313 30.0055 4.07406C29.8286 3.86498 29.7 3.63983 29.6196 3.39859C29.5391 3.15735 29.4989 2.9322 29.4989 2.72313ZM20.4041 9.79139H18.4983V6.94478H20.4041V5.44911C20.4041 4.75756 20.5328 4.15447 20.7901 3.63983C21.0635 3.10911 21.4254 2.66684 21.8757 2.31302C22.326 1.95921 22.8487 1.69385 23.4438 1.51694C24.0388 1.32395 24.666 1.21941 25.3254 1.20333C25.6953 1.18725 26.0572 1.19529 26.411 1.22745C26.7809 1.24354 27.1428 1.30787 27.4966 1.42044V4.50828C27.2071 4.42787 26.8614 4.38766 26.4593 4.38766C26.1698 4.38766 25.8803 4.41179 25.5908 4.46004C25.3013 4.50828 25.044 4.59674 24.8188 4.7254C24.5937 4.83798 24.4087 5.00684 24.264 5.232C24.1192 5.45715 24.0469 5.74664 24.0469 6.10045V6.94478H27.2554V9.79139H24.0951V19.0308H20.4041V9.79139ZM29.8608 19.0308V6.96891H33.5518V19.0308H29.8608Z" fill="black"/>
<path d="M0 23.9835V23.9707H0.385788C2.20905 23.8561 3.81204 22.9267 4.83444 21.5427C5.57164 20.5445 6.00709 19.3108 6.00709 17.9752H0V23.9835Z" fill="#AE55EE"/>
<path d="M12.0147 11.9684H6.00891V17.9639C7.10261 17.9639 8.12756 17.6711 9.01118 17.1605C10.8026 16.1229 12.0096 14.1863 12.0147 11.9684Z" fill="#3DEAB2"/>
<path d="M12.0157 5.34058e-05C9.82702 5.34058e-05 7.77458 0.588273 6.00988 1.61448C2.74151 3.51282 0.454796 6.91609 0.0970191 10.8758V10.8808C0.0639152 11.2386 0.0473633 11.6015 0.0473633 11.9682H6.00734V11.9554C6.00734 11.9032 6.00861 11.8523 6.00988 11.8001C6.06463 9.64202 7.25765 7.76532 9.01215 6.75185C9.89577 6.2413 10.922 5.94846 12.0157 5.94846V5.34058e-05Z" fill="#AE55EE"/>
</svg>
